<?xml version="1.0" encoding="utf-8"?>
<!-- Generator: Adobe Illustrator 24.2.3, SVG Export Plug-In . SVG Version: 6.00 Build 0)  -->
<svg version="1.1" id="Capa_1" xmlns="http://www.w3.org/2000/svg" xmlns:xlink="http://www.w3.org/1999/xlink" x="0px" y="0px"
	 viewBox="0 0 62 62" style="enable-background:new 0 0 62 62;" xml:space="preserve" height="62" width="62">
<style type="text/css">
	.st0{fill:#FFFFFF;}
</style>
<g>
	<g>
		<path class="st0" d="M6.3,31.6c0,0,1.2-2.7-0.8-5.5c-2-2.8-4.9-3.3-4.9-3.3s-1.3,3.2,0.6,6C3.1,31.5,6.3,31.6,6.3,31.6z"/>
		<path class="st0" d="M11.5,31.9c0,0,3-1,4-4.2c1-3.2-1.1-5.9-1.1-5.9s-2.7,1.3-3.7,4.6C9.6,29.7,11.5,31.9,11.5,31.9z"/>
		<path class="st0" d="M12.8,35.5c-0.6,3.4,1.5,5.4,1.5,5.4s2.8-1.4,3.4-4.7c0.6-3.3-1.9-5.7-1.9-5.7S13.4,32.1,12.8,35.5z"/>
		<path class="st0" d="M19.7,46.6c0,0,2.7-1.7,3-5c0.3-3.3-2.4-5.5-2.4-5.5s-2.3,1.9-2.6,5.3C17.4,44.8,19.7,46.6,19.7,46.6z"/>
		<path class="st0" d="M26.8,51.9c0,0,2.1-2.4,1.4-5.7c-0.7-3.3-3.9-4.6-3.9-4.6s-1.7,2.5-1,5.8C24.1,50.9,26.8,51.9,26.8,51.9z"/>
		<path class="st0" d="M8.6,24.6c0,0,2.5-1.6,2.4-5C10.9,16.1,8.7,14,8.7,14S5.9,16,6,19.3C6,22.7,8.6,24.6,8.6,24.6z"/>
		<path class="st0" d="M8.1,38.5c0,0,0.3-2.9-2.4-5C3,31.3,0,31.7,0,31.7s-0.3,3.4,2.4,5.5C5,39.3,8.1,38.5,8.1,38.5z"/>
		<path class="st0" d="M12.1,44.9c0,0-0.4-2.9-3.5-4.4c-3.1-1.5-5.9-0.4-5.9-0.4s0.5,3.4,3.5,4.8C9.3,46.4,12.1,44.9,12.1,44.9z"/>
		<path class="st0" d="M12.5,46.7c-3.4-0.5-5.8,1.4-5.8,1.4s1.5,3.1,4.8,3.6c3.3,0.5,5.6-1.8,5.6-1.8S15.9,47.1,12.5,46.7z"/>
		<path class="st0" d="M19.2,51.8c-3.4-0.1-5.5,2.1-5.5,2.1s1.9,2.9,5.2,2.9c3.3,0.1,5.3-2.4,5.3-2.4S22.6,51.9,19.2,51.8z"/>
		<path class="st0" d="M9.4,26.4l-1.6-0.3c0,0.2-3.3,17.6,21.9,29.8l0.7-1.5C6.5,42.8,9.3,27.1,9.4,26.4z"/>
		<path class="st0" d="M55.7,31.6c0,0,3.2-0.1,5.1-2.9c1.9-2.8,0.6-6,0.6-6s-2.9,0.5-4.9,3.3C54.6,28.9,55.7,31.6,55.7,31.6z"/>
		<path class="st0" d="M50.5,31.9c0,0,1.9-2.3,0.8-5.5c-1.1-3.3-3.7-4.6-3.7-4.6s-2.1,2.7-1.1,5.9C47.5,30.9,50.5,31.9,50.5,31.9z"
			/>
		<path class="st0" d="M44.2,36.1c0.6,3.3,3.4,4.7,3.4,4.7s2.2-2,1.5-5.4c-0.6-3.4-3.1-5-3.1-5S43.6,32.8,44.2,36.1z"/>
		<path class="st0" d="M41.7,36.1c0,0-2.7,2.2-2.4,5.5c0.3,3.3,3,5,3,5s2.3-1.8,2-5.2C44,37.9,41.7,36.1,41.7,36.1z"/>
		<path class="st0" d="M33.8,46.3c-0.7,3.3,1.4,5.7,1.4,5.7s2.8-1,3.5-4.4c0.7-3.4-1-5.8-1-5.8S34.4,43,33.8,46.3z"/>
		<path class="st0" d="M53.4,24.5c0,0,2.5-1.9,2.6-5.2c0.1-3.3-2.8-5.3-2.8-5.3s-2.2,2.1-2.2,5.5C51,22.9,53.4,24.5,53.4,24.5z"/>
		<path class="st0" d="M62,31.7c0,0-3-0.4-5.7,1.7c-2.7,2.1-2.4,5-2.4,5s3.1,0.8,5.7-1.3C62.3,35.1,62,31.7,62,31.7z"/>
		<path class="st0" d="M53.3,40.5c-3.1,1.5-3.5,4.4-3.5,4.4s2.8,1.5,5.8,0c3-1.4,3.5-4.8,3.5-4.8S56.4,39,53.3,40.5z"/>
		<path class="st0" d="M49.5,46.7c-3.4,0.5-4.6,3.1-4.6,3.1s2.2,2.2,5.6,1.8c3.3-0.5,4.8-3.6,4.8-3.6S52.9,46.2,49.5,46.7z"/>
		<path class="st0" d="M37.8,54.4c0,0,2,2.5,5.3,2.4c3.3-0.1,5.2-2.9,5.2-2.9s-2.1-2.1-5.5-2.1C39.4,51.9,37.8,54.4,37.8,54.4z"/>
		<path class="st0" d="M54.2,26.1l-1.6,0.3c0.1,0.7,3,16.4-21,28l0.7,1.5C57.5,43.7,54.2,26.2,54.2,26.1z"/>
	</g>
</g>
</svg>
