<?xml version="1.0" encoding="utf-8"?>
<!-- Generator: Adobe Illustrator 24.2.3, SVG Export Plug-In . SVG Version: 6.00 Build 0)  -->
<svg version="1.1" id="Capa_1" xmlns="http://www.w3.org/2000/svg" xmlns:xlink="http://www.w3.org/1999/xlink" x="0px" y="0px"
	 viewBox="0 0 62 62" style="enable-background:new 0 0 62 62;" xml:space="preserve" height="50" width="50">
<style type="text/css">
	.st0{fill:#FFFFFF;}
</style>
<path class="st0" d="M61.1,18.8c-1.4-1.6-3.8-1.9-5.5-0.5l-8.3,6.9l-4.8-7.1c1.3-1.9,2-4.1,2-6.5C44.6,5.2,39.3,0,32.9,0
	S21.3,5.2,21.3,11.6c0,2.5,0.8,4.9,2.2,6.8L0.6,56.1C-0.5,58,0,60.3,1.9,61.4c0.6,0.4,1.3,0.6,2,0.6c0,0,0,0,0,0h50.4
	c2.1,0,3.9-1.7,3.9-3.9s-1.7-3.9-3.9-3.9H10.8l19.1-31.4c1,0.3,2,0.4,3,0.4c1.2,0,2.3-0.2,3.4-0.5l5,7.5l-8.9,7.5
	c-1.6,1.4-1.9,3.8-0.5,5.5c0.8,0.9,1.9,1.4,3,1.4c0.9,0,1.8-0.3,2.5-0.9l8.3-6.9l5.4,8c0.7,1.1,2,1.7,3.2,1.7c0.7,0,1.5-0.2,2.1-0.7
	c1.8-1.2,2.3-3.6,1.1-5.4l-5.8-8.7l8.9-7.5C62.2,22.9,62.5,20.5,61.1,18.8z M32.9,7.8c2.1,0,3.9,1.7,3.9,3.9s-1.7,3.9-3.9,3.9
	s-3.9-1.7-3.9-3.9S30.8,7.8,32.9,7.8z"/>
</svg>
